<svg xmlns="http://www.w3.org/2000/svg" xmlns:xlink="http://www.w3.org/1999/xlink" width="179" height="179" viewBox="0 0 179 179">
  <defs>
    <filter id="Ellipse_204" x="0" y="0" width="179" height="179" filterUnits="userSpaceOnUse">
      <feOffset dy="19" input="SourceAlpha"/>
      <feGaussianBlur stdDeviation="16.5" result="blur"/>
      <feFlood flood-color="#9f9f9f" flood-opacity="0.251"/>
      <feComposite operator="in" in2="blur"/>
      <feComposite in="SourceGraphic"/>
    </filter>
  </defs>
  <g id="Group_685" data-name="Group 685" transform="translate(49.5 30.5)">
    <g transform="matrix(1, 0, 0, 1, -49.5, -30.5)" filter="url(#Ellipse_204)">
      <circle id="Ellipse_204-2" data-name="Ellipse 204" cx="40" cy="40" r="40" transform="translate(49.5 30.5)" fill="#fff"/>
    </g>
    <g id="slack-1" transform="translate(20 19.999)">
      <path id="Path_141" data-name="Path 141" d="M6.953,2.463a3.563,3.563,0,0,0-6.777,2.2L9.389,33.012a3.564,3.564,0,0,0,6.775-2.2L6.953,2.463" transform="translate(18.987)" fill="#dfa22f"/>
      <path id="Path_142" data-name="Path 142" d="M6.953,2.463a3.563,3.563,0,1,0-6.778,2.2L9.389,33.013a3.564,3.564,0,0,0,6.775-2.2L6.953,2.463" transform="translate(4.711 4.639)" fill="#3cb187"/>
      <path id="Path_143" data-name="Path 143" d="M32.9,6.953A3.563,3.563,0,0,0,30.7.175L2.349,9.389a3.564,3.564,0,0,0,2.2,6.775L32.9,6.953" transform="translate(4.639 18.988)" fill="#ce1e5b"/>
      <path id="Path_144" data-name="Path 144" d="M2.2,8.977l6.775-2.2L6.776,0,0,2.2,2.2,8.977" transform="translate(10.694 24.97)" fill="#392538"/>
      <path id="Path_145" data-name="Path 145" d="M2.2,8.978l6.775-2.2L6.776,0,0,2.2,2.2,8.978" transform="translate(24.97 20.33)" fill="#bb242a"/>
      <path id="Path_146" data-name="Path 146" d="M32.9,6.953A3.563,3.563,0,1,0,30.7.175L2.349,9.389a3.564,3.564,0,0,0,2.2,6.774L32.9,6.953" transform="translate(0 4.712)" fill="#72c5cd"/>
      <path id="Path_147" data-name="Path 147" d="M2.2,8.977l6.776-2.2L6.777,0,0,2.2,2.2,8.977" transform="translate(6.054 10.694)" fill="#248c73"/>
      <path id="Path_148" data-name="Path 148" d="M2.2,8.981l6.776-2.2Q7.883,3.391,6.778,0L0,2.2,2.2,8.981" transform="translate(20.33 6.052)" fill="#62803a"/>
    </g>
  </g>
</svg>
