<svg xmlns="http://www.w3.org/2000/svg" xmlns:xlink="http://www.w3.org/1999/xlink" width="179" height="179" viewBox="0 0 179 179">
  <defs>
    <filter id="Ellipse_210" x="0" y="0" width="179" height="179" filterUnits="userSpaceOnUse">
      <feOffset dy="19" input="SourceAlpha"/>
      <feGaussianBlur stdDeviation="16.5" result="blur"/>
      <feFlood flood-color="#9f9f9f" flood-opacity="0.251"/>
      <feComposite operator="in" in2="blur"/>
      <feComposite in="SourceGraphic"/>
    </filter>
    <linearGradient id="linear-gradient" y1="0.509" x2="1" y2="0.509" gradientUnits="objectBoundingBox">
      <stop offset="0" stop-color="#fff" stop-opacity="0.102"/>
      <stop offset="1" stop-color="#fff" stop-opacity="0"/>
    </linearGradient>
    <clipPath id="clip-path">
      <path id="Path_111" data-name="Path 111" d="M36.789,0H29.553a3.223,3.223,0,0,0-3.211,3.211v9.421H15.816a3.167,3.167,0,0,0-3.158,3.158V26.316h-9.5A3.167,3.167,0,0,0,0,29.474v7.368A3.167,3.167,0,0,0,3.158,40H36.789A3.223,3.223,0,0,0,40,36.789V3.211A3.223,3.223,0,0,0,36.789,0Z" fill="none"/>
    </clipPath>
    <linearGradient id="linear-gradient-3" x1="-0.496" y1="0.299" x2="0.932" y2="-0.414" gradientUnits="objectBoundingBox">
      <stop offset="0" stop-color="#bf360c" stop-opacity="0.2"/>
      <stop offset="1" stop-color="#bf360c" stop-opacity="0.02"/>
    </linearGradient>
    <linearGradient id="linear-gradient-4" x1="0.335" y1="0.673" x2="0.982" y2="0.026" xlink:href="#linear-gradient"/>
  </defs>
  <g id="Group_1" data-name="Group 1" transform="translate(-642.5 -162.5)">
    <g transform="matrix(1, 0, 0, 1, 642.5, 162.5)" filter="url(#Ellipse_210)">
      <circle id="Ellipse_210-2" data-name="Ellipse 210" cx="40" cy="40" r="40" transform="translate(49.5 30.5)" fill="#fff"/>
    </g>
    <g id="google-analytics-3" transform="translate(712 213)">
      <path id="Path_107" data-name="Path 107" d="M36.789,0H29.5a3.223,3.223,0,0,0-3.211,3.211v9.421H15.737a3.117,3.117,0,0,0-3.105,3.132V26.316h-9.5A3.122,3.122,0,0,0,0,29.447v7.368A3.2,3.2,0,0,0,3.132,40H36.816a3.223,3.223,0,0,0,3.211-3.211V3.211A3.263,3.263,0,0,0,36.789,0Z" fill="url(#linear-gradient)"/>
      <path id="Path_108" data-name="Path 108" d="M36.789,0H29.5a3.223,3.223,0,0,0-3.211,3.211v9.421H15.737a3.117,3.117,0,0,0-3.105,3.132V26.316h-9.5A3.122,3.122,0,0,0,0,29.447v7.368A3.2,3.2,0,0,0,3.132,40H36.816a3.223,3.223,0,0,0,3.211-3.211V3.211A3.263,3.263,0,0,0,36.789,0Z" fill="url(#linear-gradient)"/>
      <g id="Group_217" data-name="Group 217">
        <path id="Path_111-2" data-name="Path 111" d="M36.789,0H29.553a3.223,3.223,0,0,0-3.211,3.211v9.421H15.816a3.167,3.167,0,0,0-3.158,3.158V26.316h-9.5A3.167,3.167,0,0,0,0,29.474v7.368A3.167,3.167,0,0,0,3.158,40H36.789A3.223,3.223,0,0,0,40,36.789V3.211A3.223,3.223,0,0,0,36.789,0Z" fill="none"/>
        <g id="Group_217-2" data-name="Group 217" clip-path="url(#clip-path)">
          <path id="Path_109" data-name="Path 109" d="M10.447,0H3.211A3.223,3.223,0,0,0,0,3.211V40H10.447a3.223,3.223,0,0,0,3.211-3.211V3.211A3.223,3.223,0,0,0,10.447,0Z" transform="translate(26.342)" fill="#f57c00"/>
          <rect id="Rectangle_134" data-name="Rectangle 134" width="32.895" height="33.947" transform="translate(-2.368 10.263)" fill="none" opacity="0.2"/>
          <path id="Path_110" data-name="Path 110" d="M12.632,3.158V13.684H3.158A3.167,3.167,0,0,0,0,16.842v7.368a3.167,3.167,0,0,0,3.158,3.158H26.316V0H15.789A3.167,3.167,0,0,0,12.632,3.158Z" transform="translate(0 12.632)" fill="#ffc107"/>
        </g>
      </g>
      <g id="Group_218" data-name="Group 218">
        <path id="Path_113-2" data-name="Path 113" d="M36.789,0H29.553a3.223,3.223,0,0,0-3.211,3.211v9.421H15.816a3.167,3.167,0,0,0-3.158,3.158V26.316h-9.5A3.167,3.167,0,0,0,0,29.474v7.368A3.167,3.167,0,0,0,3.158,40H36.789A3.223,3.223,0,0,0,40,36.789V3.211A3.223,3.223,0,0,0,36.789,0Z" fill="none"/>
        <g id="Group_218-2" data-name="Group 218" clip-path="url(#clip-path)">
          <path id="Path_112" data-name="Path 112" d="M0,0V27.368H10.447a3.223,3.223,0,0,0,3.211-3.211V13.684Z" transform="translate(26.316 12.632)" fill="url(#linear-gradient-3)"/>
        </g>
      </g>
      <g id="Group_220" data-name="Group 220">
        <g id="Group_219" data-name="Group 219">
          <path id="Path_115-2" data-name="Path 115" d="M36.789,0H29.553a3.223,3.223,0,0,0-3.211,3.211v9.421H15.816a3.167,3.167,0,0,0-3.158,3.158V26.316h-9.5A3.167,3.167,0,0,0,0,29.474v7.368A3.167,3.167,0,0,0,3.158,40H36.789A3.223,3.223,0,0,0,40,36.789V3.211A3.223,3.223,0,0,0,36.789,0Z" fill="none"/>
          <g id="Group_219-2" data-name="Group 219" clip-path="url(#clip-path)">
            <path id="Path_114" data-name="Path 114" d="M3.158.263H13.684V0H3.158A3.167,3.167,0,0,0,0,3.158v.263A3.167,3.167,0,0,1,3.158.263Z" transform="translate(12.632 12.632)" fill="#fff" opacity="0.2"/>
          </g>
        </g>
      </g>
      <g id="Group_222" data-name="Group 222">
        <g id="Group_221" data-name="Group 221">
          <path id="Path_117-2" data-name="Path 117" d="M36.789,0H29.553a3.223,3.223,0,0,0-3.211,3.211v9.421H15.816a3.167,3.167,0,0,0-3.158,3.158V26.316h-9.5A3.167,3.167,0,0,0,0,29.474v7.368A3.167,3.167,0,0,0,3.158,40H36.789A3.223,3.223,0,0,0,40,36.789V3.211A3.223,3.223,0,0,0,36.789,0Z" fill="none"/>
          <g id="Group_221-2" data-name="Group 221" clip-path="url(#clip-path)">
            <path id="Path_116" data-name="Path 116" d="M3.158.263h9.474V0H3.158A3.167,3.167,0,0,0,0,3.158v.263A3.167,3.167,0,0,1,3.158.263Z" transform="translate(0 26.316)" fill="#fff" opacity="0.2"/>
          </g>
        </g>
      </g>
      <g id="Group_224" data-name="Group 224">
        <g id="Group_223" data-name="Group 223">
          <path id="Path_119-2" data-name="Path 119" d="M36.789,0H29.553a3.223,3.223,0,0,0-3.211,3.211v9.421H15.816a3.167,3.167,0,0,0-3.158,3.158V26.316h-9.5A3.167,3.167,0,0,0,0,29.474v7.368A3.167,3.167,0,0,0,3.158,40H36.789A3.223,3.223,0,0,0,40,36.789V3.211A3.223,3.223,0,0,0,36.789,0Z" fill="none"/>
          <g id="Group_223-2" data-name="Group 223" clip-path="url(#clip-path)">
            <path id="Path_118" data-name="Path 118" d="M10.447,0H3.211A3.223,3.223,0,0,0,0,3.211v.263A3.223,3.223,0,0,1,3.211.263h7.237a3.223,3.223,0,0,1,3.211,3.211V3.211A3.223,3.223,0,0,0,10.447,0Z" transform="translate(26.342)" fill="#fff" opacity="0.2"/>
          </g>
        </g>
      </g>
      <g id="Group_226" data-name="Group 226">
        <g id="Group_225" data-name="Group 225">
          <path id="Path_121-2" data-name="Path 121" d="M36.789,0H29.553a3.223,3.223,0,0,0-3.211,3.211v9.421H15.816a3.167,3.167,0,0,0-3.158,3.158V26.316h-9.5A3.167,3.167,0,0,0,0,29.474v7.368A3.167,3.167,0,0,0,3.158,40H36.789A3.223,3.223,0,0,0,40,36.789V3.211A3.223,3.223,0,0,0,36.789,0Z" fill="none"/>
          <g id="Group_225-2" data-name="Group 225" clip-path="url(#clip-path)">
            <path id="Path_120" data-name="Path 120" d="M36.789,3.211H3.158A3.167,3.167,0,0,1,0,.053V.316A3.167,3.167,0,0,0,3.158,3.474H36.763A3.223,3.223,0,0,0,39.974.263V0a3.184,3.184,0,0,1-3.184,3.211Z" transform="translate(0 36.526)" fill="#bf360c" opacity="0.2"/>
          </g>
        </g>
      </g>
      <path id="Path_122" data-name="Path 122" d="M36.789,0H29.553a3.223,3.223,0,0,0-3.211,3.211v9.421H15.816a3.167,3.167,0,0,0-3.158,3.158V26.316h-9.5A3.167,3.167,0,0,0,0,29.474v7.368A3.167,3.167,0,0,0,3.158,40H36.789A3.223,3.223,0,0,0,40,36.789V3.211A3.223,3.223,0,0,0,36.789,0Z" fill="url(#linear-gradient-4)"/>
    </g>
  </g>
</svg>
