<svg xmlns="http://www.w3.org/2000/svg" xmlns:xlink="http://www.w3.org/1999/xlink" width="179" height="179" viewBox="0 0 179 179">
  <defs>
    <filter id="Ellipse_203" x="0" y="0" width="179" height="179" filterUnits="userSpaceOnUse">
      <feOffset dy="19" input="SourceAlpha"/>
      <feGaussianBlur stdDeviation="16.5" result="blur"/>
      <feFlood flood-color="#9f9f9f" flood-opacity="0.251"/>
      <feComposite operator="in" in2="blur"/>
      <feComposite in="SourceGraphic"/>
    </filter>
  </defs>
  <g id="Group_683" data-name="Group 683" transform="translate(49.5 30.5)">
    <g transform="matrix(1, 0, 0, 1, -49.5, -30.5)" filter="url(#Ellipse_203)">
      <circle id="Ellipse_203-2" data-name="Ellipse 203" cx="40" cy="40" r="40" transform="translate(49.5 30.5)" fill="#fff"/>
    </g>
    <g id="invision" transform="translate(20 20)">
      <path id="Path_127" data-name="Path 127" d="M36.374,0H3.626A3.626,3.626,0,0,0,0,3.626V36.374A3.626,3.626,0,0,0,3.626,40H36.374A3.626,3.626,0,0,0,40,36.374V3.626A3.626,3.626,0,0,0,36.374,0" fill="#dc395f"/>
      <path id="Path_128" data-name="Path 128" d="M.79,19.517a8.236,8.236,0,0,1,.216-1.808l1.832-7.487H0L.862,7.041H7.69L4.995,17.732a6.765,6.765,0,0,0-.252,1.644c0,.684.337.884.863,1,.32.072,2.874.022,4.264-3.069l1.77-7.087H8.766l.862-3.182h6.144l-.79,3.613c1.077-2.013,3.234-3.925,5.354-3.925,2.264,0,4.132,1.613,4.132,4.7a9.091,9.091,0,0,1-.4,2.621l-1.15,4.131a4.783,4.783,0,0,0-.179,1.114c0,.718.287,1.077.826,1.077s1.222-.4,2.012-2.587l1.581.61c-.934,3.271-2.624,4.635-4.744,4.635-2.479,0-3.665-1.472-3.665-3.486a6.4,6.4,0,0,1,.251-1.8l1.186-4.24a4.3,4.3,0,0,0,.18-1.294,2.011,2.011,0,0,0-2.156-2.191c-1.688,0-2.8,1.212-3.378,3.548l-2.3,9.225H8.514l.723-2.9a5.719,5.719,0,0,1-4.853,3.146A3.224,3.224,0,0,1,.79,19.517ZM3.63,2.407A2.443,2.443,0,1,1,6.072,4.815,2.415,2.415,0,0,1,3.63,2.407Z" transform="translate(7.295 7.77)" fill="#fff"/>
    </g>
  </g>
</svg>
