<svg id="Layer_1" data-name="Layer 1" xmlns="http://www.w3.org/2000/svg" viewBox="0 0 83.24 80"><defs><style>.cls-1,.cls-2{fill:#fff;}.cls-1{fill-rule:evenodd;}</style></defs><path class="cls-1" d="M48.36,21.66a4.63,4.63,0,0,0,2.32-2.28c.61-1.24.4-3,.4-4.46,0-3.24,0-6.5,0-9.75A5,5,0,0,0,49.8,1.76c-2.59-2.9-8.07-2.15-9.33,1.78a15.72,15.72,0,0,0-.08,4.54A1.35,1.35,0,0,0,43,7.39c.13-2-.5-2.89.86-4a2.93,2.93,0,0,1,3.62-.12c1.23.9.92,2,.92,3.87C48.36,11.57,48.19,17.52,48.36,21.66Z"/><path class="cls-1" d="M34.87,27.49c-3,1.7-2.7,3.79-2.7,7.07s-.09,6.45,0,9.58a5.35,5.35,0,0,0,4.79,5,5.55,5.55,0,0,0,5.88-3.68c.14-.54,1-6.17-1.8-5-1.78.71.48,4-1.72,5.5a3,3,0,0,1-3.55,0c-1.2-.83-.88-2.19-.88-4C34.89,37.79,35.05,31.09,34.87,27.49Z"/><path class="cls-1" d="M36.06,16.11c0,1.93-.25,4.65.65,6.13a5.56,5.56,0,0,0,1.59,1.68c.62.48,1.15.92,1.8,1.42l3.53,2.82c.71.73.55,1.36.55,2.7v6.51c3.74-2,2.94-4.1,2.94-8.73,0-2.17-2.48-3.76-4.14-5L39.64,21c-.69-.72-.49-1.34-.49-2.64V12.12A4.94,4.94,0,0,0,36.06,16.11Z"/><path class="cls-1" d="M36.06,26.89v6.48a5,5,0,0,0,2.95,4c0-1,.19-10.42-.15-11.09A1.5,1.5,0,0,0,36.06,26.89Z"/><path class="cls-1" d="M44.18,12.56c0,1.82-.28,9.6.29,10.48.73,1.15,2.65.5,2.65-.44v-7C47.12,14.38,44.18,11.16,44.18,12.56Z"/><path class="cls-1" d="M40.33,27.47l0,10.63a1.38,1.38,0,0,0,2.28.67c.42-.46.94-7.68-.36-9.54A4.47,4.47,0,0,0,40.33,27.47Z"/><path class="cls-1" d="M43,21.7,42.9,11.32a1.39,1.39,0,0,0-2.22-.65c-.73.67-.4,5.23-.4,6.62A4.6,4.6,0,0,0,43,21.7Z"/><path class="cls-1" d="M46.2,64.11H44.43v-4.9c-5.3.11-7.16,6.65-5.69,6.65,2.33,0,.75-.33,2-2.47a4.23,4.23,0,0,1,1.89-1.83c0,1.86-.39,4.3.58,4.3H80.62V56.07c-2.39,0-1.75-1-1.75,8H77.32c0-5.46.39-4.9-1.39-4.9-1,0-.58,2.08-.58,4.9h-2c0-4.27.44-3.74-1.75-3.74v3.74H69.47V61.76H67.72v2.35H64.39v-8H62.62v8H60.68v-4.9c-2.28,0-1.78-.7-1.78,4.9H57c0-4.15.33-3.74-1.38-3.74-.92,0-.59,1.33-.59,3.74H53.05V61.76H51.28v2.35H48V56.65c0-.74-.5-.58-1.75-.58Z"/><path class="cls-1" d="M12.53,59v3.33c5.33,0,5.88-.53,5.88,1.77H11.18v-4.9c-2.28,0-1.78-.7-1.78,4.9H6.85v-4.9A6.35,6.35,0,0,0,.61,65.86c3.66,0,.47-1.75,4.3-4.3v2.36c0,.89-.28,1.94.58,1.94H19.58c.8,0,.58-.61.58-2.16,0-3.66-2.8-3.11-5.88-3.11,0-.91-.08-.47.28-.91l4.1-3c.56-.42.31,0,.53-.64-3.08,0-2.33-.16-5.13,1.94A4.82,4.82,0,0,1,12.53,59Z"/><path class="cls-1" d="M7.46,80H9V74.68a.53.53,0,0,1,.09.11c0,.06.05.11.05.14a1.86,1.86,0,0,1,.14.25c.08.25.14.47.25.75L11,80h1.36c.5-1,1.42-4.49,1.94-5.27V80c2.39,0,1.78,1,1.78-7.63-3,0-2.5-.19-2.86.86l-1.64,4a24.88,24.88,0,0,0-1.19-3.88c-.39-1.22,0-1-2.91-1Z"/><path class="cls-1" d="M28.59,64.11H27c0-3.21-1.91-4.9-5.07-4.9v2c2.6,0,3.13.77,3.13,2.93H20.74c0,2.42-1.13,1.75,9,1.75.44,0,.58-.14.58-.58V56.65c0-.74-.5-.58-1.75-.58Z"/><path class="cls-1" d="M76.32,80c2.27,0,1.77.47,1.77-4.88C79.15,76.29,81,80,81.81,80c1.91,0,1.36.72,1.36-7.63H81.42V77c-1-.69-2.69-4.69-3.52-4.69H76.32Z"/><path class="cls-1" d="M54,79.37c0,.75.5.58,1.75.58V76.82h2.94c0,3.49-.31,3.13,1.39,3.13.44,0,.58-.14.58-.58V72.32h-2v2.94H55.77V72.32H54Z"/><path class="cls-1" d="M30.53,75.46,29,75.65v-2l1.75.2c.08.86.22.8-.2,1.58Zm-3.32,3.91c0,.75.49.58,1.77.58V77c1.39,0,1.44,1,2.72,2.94h1.77a4.21,4.21,0,0,0-1-2c-.19-.28-.36-.53-.58-.8-.42-.53-.42-.23-.61-1,.53-.11.58-.11.91-.47.78-.83,1-3.44-1.88-3.44H27.21Z"/><path class="cls-1" d="M66.34,74.26c.11,1.09.58,1.39.61,2.56H65.36c.2-.81.37-2.08,1-2.56Zm-2,5.69A9.71,9.71,0,0,1,65,78.2h2.55C68,80.2,68,80,69.86,80c0-1.19-2.19-6.21-2.53-7.63H65.17L62.7,79.09C62.26,80.31,62.9,80,64.39,80Z"/><path class="cls-1" d="M21.63,74a10.65,10.65,0,0,0,.44,1.47,11.76,11.76,0,0,0,.45,1.31H20.74L21.63,74ZM18,80h1.35c1.11,0,.23-1.75,1.36-1.75,2.61,0,2.11-.27,2.56,1.17.16.5,0-.14.19.58h1.77A16.6,16.6,0,0,0,24,76.07c-.44-1.08-.83-2.72-1.33-3.75H20.55C20.16,74.07,18.05,78.65,18,80Z"/><path class="cls-1" d="M0,74.26c0,3,3.16,1.75,3.33,3.94C2,78.92,1.5,78.59,0,77.79v1.77c1.5.33-.08.39,2.94.39A2.52,2.52,0,0,0,5.3,77.79c0-2.67-5-2.83-2.92-4.08.73-.44,1.75,0,2.53.36V72.32C4.05,72.24,0,71.38,0,74.26Z"/><path class="cls-1" d="M45.81,76.23a4.56,4.56,0,0,0,.84,2.47,4.12,4.12,0,0,0,5.21.67V78c-1,.25-4.11,1.42-4.11-1.94s3.06-2.22,4.11-2V72.52a4.68,4.68,0,0,0-4.94.72A4.52,4.52,0,0,0,45.81,76.23Z"/><path class="cls-1" d="M34.25,73.68h2.16v5.69c0,.75.5.58,1.75.58V74.26c0-.77.61-.58,2.16-.58V72.32H34.25Z"/><path class="cls-1" d="M31.12,65.86c2.44,0,1.77,1.17,1.77-9.21,0-.74-.5-.58-1.77-.58Z"/><path class="cls-1" d="M81.42,56.65v8.63c0,.86,1.75.86,1.75,0V56.07C81.92,56.07,81.42,55.91,81.42,56.65Z"/><path class="cls-1" d="M71.83,79.37c0,.44.14.58.58.58h1.16V72.32H71.83Z"/><path class="cls-1" d="M7.24,68.22c2.11,0,2,.17,2-1.19,0-.78-.56-.59-2-.59Z"/><path class="cls-1" d="M42.49,58.24c2.08,0,1.94.19,1.94-1.2,0-.77-.56-.58-1.94-.58Z"/><rect class="cls-2" x="9.79" y="66.44" width="1.77" height="1.77"/><rect class="cls-2" x="2.55" y="56.46" width="1.77" height="1.77"/><rect class="cls-2" x="40.13" y="56.46" width="1.75" height="1.77"/><rect class="cls-2" x="4.91" y="56.46" width="1.75" height="1.77"/><rect class="cls-2" x="21.94" y="56.46" width="1.75" height="1.77"/></svg>