<svg id="Layer_1" data-name="Layer 1" xmlns="http://www.w3.org/2000/svg" viewBox="0 0 324.59 80"><defs><style>.cls-1{fill:#fff;fill-rule:evenodd;}</style></defs><path class="cls-1" d="M26.4,35.23c1.46-.41,3.06-2.24,3.78-3.71,1-2,.65-4.83.65-7.25,0-5.27,0-10.58,0-15.85a8,8,0,0,0-2.08-5.55C24.53-1.86,15.61-.64,13.57,5.76a25.81,25.81,0,0,0-.14,7.39c.62,1.83,4,1.9,4.19-1.13.21-3.26-.82-4.69,1.4-6.56a4.73,4.73,0,0,1,5.88-.21c2,1.46,1.5,3.3,1.5,6.3,0,7.28-.27,16.94,0,23.68Z"/><path class="cls-1" d="M4.45,44.73C-.45,47.48.06,50.89.06,56.23c0,5.14-.14,10.48,0,15.59A8.71,8.71,0,0,0,7.85,80c4.63.48,8.65-2.59,9.57-6,.23-.88,1.7-10-2.93-8.2-2.89,1.16.78,6.53-2.79,8.95a5,5,0,0,1-5.79,0C4,73.35,4.48,71.14,4.48,68.21c0-6.74.28-17.63,0-23.48Z"/><path class="cls-1" d="M6.39,26.21c0,3.14-.41,7.56,1.06,10A8.84,8.84,0,0,0,10,38.91c1,.78,1.87,1.5,2.93,2.31l5.75,4.6c1.16,1.19.88,2.21.88,4.39V60.79c6.1-3.23,4.8-6.67,4.8-14.19,0-3.54-4.05-6.13-6.74-8.17l-5.44-4.35c-1.12-1.16-.78-2.18-.78-4.29V19.71c-2.15.52-5,3.85-5,6.5Z"/><path class="cls-1" d="M6.39,43.74V54.29c0,2.62,2.72,5.92,4.8,6.5,0-1.6.31-16.95-.24-18-1-2.07-4.56-1.36-4.56,1Z"/><path class="cls-1" d="M19.59,20.43c0,3-.44,15.62.48,17,1.19,1.87,4.32.82,4.32-.72V25.47c0-2.08-4.8-7.32-4.8-5Z"/><path class="cls-1" d="M13.33,44.69l0,17.29a2.25,2.25,0,0,0,3.71,1.09c.68-.75,1.53-12.49-.58-15.52a7.16,7.16,0,0,0-3.17-2.86Z"/><path class="cls-1" d="M17.65,35.3l-.13-16.88a2.25,2.25,0,0,0-3.61-1.05c-1.19,1.09-.65,8.5-.65,10.75,0,3.1,1.47,6,4.39,7.18Z"/><path class="cls-1" d="M200.94,27H195V10.59C177.33,11,171.13,32.8,176,32.8c7.78,0,2.5-1.11,6.85-8.24a13.93,13.93,0,0,1,6.3-6.11c0,6.21-1.3,14.35,1.94,14.35h124.7V.12C307.86.12,310-3.39,310,27h-5.18c0-18.24,1.29-16.38-4.63-16.38-3.43,0-1.95,6.94-1.95,16.38h-6.57c0-14.25,1.48-12.5-5.83-12.5V27h-7.22V19.1h-5.83V27H261.67V.12h-5.93V27h-6.48V10.59c-7.59,0-5.92-2.32-5.92,16.38h-6.48c0-13.88,1.11-12.5-4.63-12.5-3.06,0-1.95,4.45-1.95,12.5H223.8V19.1h-5.92V27H206.77V2.07c0-2.5-1.67-1.95-5.83-1.95V27Z"/><path class="cls-1" d="M88.55,9.94V21.05c17.77,0,19.62-1.76,19.62,5.92H84V10.59c-7.59,0-5.92-2.32-5.92,16.38H69.57V10.59c-12.13.27-20.83,9.72-20.83,22.21C61,32.8,50.31,27,63.09,18.45v7.87c-.09,3-.93,6.48,1.94,6.48h47c2.69,0,2-2,2-7.22,0-12.22-9.35-10.37-19.63-10.37.09-3.05-.28-1.57.93-3.05L109,2.25c1.85-1.38,1-.09,1.76-2.13C100.49.12,103-.43,93.64,6.6c-1.48,1.12-3.24,2.87-5.09,3.34Z"/><path class="cls-1" d="M71.61,79.83h5.18V62.24a1.48,1.48,0,0,1,.28.37c0,.19.18.37.18.47a6.14,6.14,0,0,1,.47.83c.27.83.46,1.57.83,2.5l4.81,13.42H87.9c1.67-3.51,4.72-15,6.48-17.59V79.83c8,0,5.93,3.43,5.93-25.46-10.1,0-8.34-.64-9.54,2.87L85.31,70.67c-.09-2.59-2.87-9.54-4-13-1.3-4.08.09-3.34-9.72-3.34V79.83Z"/><path class="cls-1" d="M142.15,27h-5.28c0-10.74-6.38-16.38-16.94-16.38v6.57c8.7,0,10.46,2.59,10.46,9.81H116C116,35,112.16,32.8,146,32.8c1.48,0,1.94-.46,1.94-1.94V2.07c0-2.5-1.66-1.95-5.83-1.95V27Z"/><path class="cls-1" d="M301.48,79.83c7.59,0,5.92,1.58,5.92-16.29,3.52,4.07,9.81,16.29,12.41,16.29,6.38,0,4.53,2.41,4.53-25.46h-5.83V70c-3.24-2.31-9-15.65-11.76-15.65h-5.27V79.83Z"/><path class="cls-1" d="M227,77.89c0,2.5,1.67,1.94,5.84,1.94V69.37h9.81c0,11.67-1,10.46,4.63,10.46,1.48,0,1.94-.46,1.94-1.94V54.37h-6.57v9.82h-9.81V54.37H227V77.89Z"/><path class="cls-1" d="M148.63,64.84l-5.18.64V58.91l5.83.65c.28,2.87.74,2.68-.65,5.28Zm-11.11,13c0,2.5,1.67,1.94,5.93,1.94V70c4.63.09,4.81,3.43,9.07,9.81h5.92c-.27-3-1.94-4.44-3.24-6.57-.64-.93-1.2-1.76-1.94-2.68-1.39-1.76-1.39-.75-2-3.15,1.76-.37,1.95-.37,3.06-1.58,2.59-2.77,3.24-11.48-6.3-11.48H137.52V77.89Z"/><path class="cls-1" d="M268.15,60.86c.37,3.61,1.94,4.62,2,8.51h-5.27c.65-2.68,1.2-6.94,3.24-8.51Zm-6.48,19A32.94,32.94,0,0,1,263.61,74h8.52c1.57,6.67,1.48,5.83,7.77,5.83-.09-4-7.31-20.73-8.42-25.46h-7.22L256,77c-1.48,4.08.65,2.87,5.65,2.87Z"/><path class="cls-1" d="M118.91,60.11A36,36,0,0,0,120.39,65a40,40,0,0,0,1.49,4.35H116l3-9.26Zm-12,19.72h4.53c3.71,0,.75-5.83,4.54-5.83,8.7,0,7-.92,8.52,3.89.55,1.67.09-.46.65,1.94H131c-.09-3-2.87-10.09-4.07-13-1.48-3.61-2.78-9.07-4.45-12.5H115.3C114,60.21,107,75.48,106.88,79.83Z"/><path class="cls-1" d="M46.7,60.86C46.7,71,57.26,66.69,57.81,74c-4.53,2.41-6.11,1.3-11.11-1.39v5.93c5,1.11-.27,1.29,9.82,1.29,3.61,0,7.87-3.61,7.87-7.22,0-8.89-16.67-9.44-9.72-13.61,2.4-1.48,5.83,0,8.42,1.21V54.37c-2.87-.27-16.39-3.14-16.39,6.49Z"/><path class="cls-1" d="M199.64,67.43a15.35,15.35,0,0,0,2.78,8.24c3.52,4.63,12,5.83,17.4,2.22V73.26c-3.52.83-13.7,4.72-13.7-6.48,0-10.74,10.18-7.41,13.7-6.57V55c-5.18-2.5-12.59-1.39-16.48,2.41a15,15,0,0,0-3.7,10Z"/><path class="cls-1" d="M161,58.91h7.22v19c0,2.5,1.66,1.94,5.83,1.94v-19c0-2.6,2-2,7.22-2V54.37H161v4.54Z"/><path class="cls-1" d="M150.57,32.8c8.15,0,5.93,3.89,5.93-30.73,0-2.5-1.67-1.95-5.93-1.95V32.8Z"/><path class="cls-1" d="M318.51,2.07V30.86c0,2.87,5.83,2.87,5.83,0V.12c-4.16,0-5.83-.55-5.83,1.95Z"/><path class="cls-1" d="M286.48,77.89c0,1.48.46,1.94,1.94,1.94h3.89V54.37h-5.83V77.89Z"/><path class="cls-1" d="M70.87,40.67c7,0,6.57.56,6.57-4,0-2.59-1.85-1.94-6.57-1.94v5.92Z"/><path class="cls-1" d="M188.53,7.35c6.94,0,6.48.64,6.48-4,0-2.59-1.85-1.94-6.48-1.94V7.35Z"/><polygon class="cls-1" points="79.38 40.67 85.31 40.67 85.31 34.75 79.38 34.75 79.38 40.67 79.38 40.67"/><polygon class="cls-1" points="55.22 7.35 61.15 7.35 61.15 1.42 55.22 1.42 55.22 7.35 55.22 7.35"/><polygon class="cls-1" points="180.66 7.35 186.5 7.35 186.5 1.42 180.66 1.42 180.66 7.35 180.66 7.35"/><polygon class="cls-1" points="63.09 7.35 68.92 7.35 68.92 1.42 63.09 1.42 63.09 7.35 63.09 7.35"/><polygon class="cls-1" points="119.93 7.35 125.76 7.35 125.76 1.42 119.93 1.42 119.93 7.35 119.93 7.35"/></svg>